<?xml version="1.0" standalone="no"?>
<!DOCTYPE svg PUBLIC "-//W3C//DTD SVG 20010904//EN"
 "http://www.w3.org/TR/2001/REC-SVG-20010904/DTD/svg10.dtd">
<svg version="1.0" xmlns="http://www.w3.org/2000/svg"
 width="1954.000000pt" height="1954.000000pt" viewBox="0 0 1954.000000 1954.000000"
 preserveAspectRatio="xMidYMid meet">
<metadata>
Created by potrace 1.14, written by Peter Selinger 2001-2017
</metadata>
<g transform="translate(0.000000,1954.000000) scale(0.100000,-0.100000)"
fill="#000000" stroke="none">
<path d="M5029 19385 c-3 -2 -41 -6 -84 -9 -44 -3 -100 -8 -125 -11 -25 -2
-65 -7 -90 -9 -25 -3 -54 -7 -65 -9 -11 -3 -47 -8 -80 -12 -33 -3 -78 -10
-100 -15 -22 -5 -56 -11 -75 -14 -19 -3 -46 -8 -60 -11 -14 -3 -36 -8 -50 -10
-14 -2 -81 -17 -150 -34 -300 -71 -533 -146 -820 -263 -139 -57 -436 -199
-520 -248 -26 -16 -74 -43 -106 -60 -33 -18 -78 -46 -102 -61 -24 -16 -45 -29
-48 -29 -11 0 -317 -209 -396 -269 -25 -20 -61 -47 -79 -61 -49 -37 -212 -171
-230 -189 -9 -9 -43 -40 -77 -69 -117 -103 -349 -339 -452 -462 -30 -36 -58
-67 -61 -70 -12 -10 -137 -168 -206 -261 -130 -175 -286 -417 -393 -614 -84
-152 -230 -457 -230 -478 0 -7 -4 -17 -9 -22 -10 -11 -106 -261 -146 -380 -32
-96 -68 -217 -102 -345 -25 -93 -29 -111 -52 -215 -6 -27 -13 -61 -16 -75 -3
-14 -8 -38 -10 -54 -2 -15 -6 -35 -9 -45 -3 -9 -8 -36 -11 -61 -8 -60 -14
-100 -20 -130 -6 -28 -11 -68 -20 -155 -3 -33 -8 -73 -10 -90 -2 -16 -8 -73
-12 -125 -10 -121 -11 -9173 0 -9297 4 -51 9 -108 11 -125 5 -34 11 -84 22
-173 9 -79 34 -231 55 -330 5 -27 12 -63 15 -80 4 -23 50 -212 78 -315 2 -8 9
-35 16 -60 44 -165 185 -544 273 -735 108 -234 315 -611 368 -671 11 -11 19
-24 19 -28 0 -6 78 -124 113 -171 133 -179 178 -238 191 -251 9 -8 16 -18 16
-22 0 -4 17 -26 38 -48 20 -23 55 -63 77 -89 154 -184 424 -449 630 -619 33
-28 68 -58 78 -68 10 -10 21 -18 25 -18 4 0 18 -10 32 -23 46 -41 190 -147
200 -147 6 0 13 -7 16 -15 4 -8 10 -15 14 -15 5 0 44 -24 87 -54 282 -195 719
-422 1058 -551 39 -15 79 -31 90 -35 29 -13 248 -84 330 -108 107 -32 180 -52
182 -52 2 -1 8 -2 15 -4 22 -6 112 -26 138 -31 14 -3 36 -7 50 -10 74 -17 95
-21 170 -35 30 -6 64 -12 75 -14 11 -2 45 -7 75 -11 30 -4 63 -9 74 -11 10 -2
41 -6 70 -9 28 -3 71 -8 96 -11 25 -3 65 -7 90 -9 25 -2 88 -7 140 -12 120
-10 9045 -11 9160 0 47 4 108 10 135 12 28 3 70 7 95 10 25 3 68 7 95 10 28 4
61 8 75 10 56 8 116 18 135 21 11 2 40 7 65 10 25 3 48 8 51 10 4 2 24 6 45
10 22 3 104 21 184 40 184 43 192 45 210 51 8 3 20 7 26 8 28 7 131 37 149 44
11 5 52 19 90 31 367 119 777 311 1130 529 138 85 307 200 313 214 2 4 10 7
17 7 7 0 15 4 17 8 2 5 30 28 63 52 33 24 74 55 91 69 17 14 42 35 55 45 185
148 429 378 588 555 36 40 80 88 96 106 17 18 44 50 60 71 17 21 42 52 56 69
110 129 310 415 434 620 139 230 314 589 405 830 12 33 28 74 35 90 46 110
168 528 199 685 2 14 10 50 16 80 6 30 13 66 15 80 3 14 12 63 20 110 9 47 18
108 21 135 3 28 7 61 9 75 10 51 20 149 32 310 10 126 10 9112 0 9215 -4 44
-10 112 -13 150 -3 39 -7 81 -10 95 -2 14 -6 45 -10 70 -8 67 -33 231 -40 265
-5 26 -26 134 -40 205 -11 55 -66 269 -85 330 -11 36 -22 72 -24 81 -4 21 -80
248 -93 279 -6 14 -31 77 -56 140 -65 166 -91 227 -103 242 -6 7 -14 24 -18
38 -11 38 -164 331 -240 460 -118 198 -329 505 -442 640 -202 243 -330 379
-565 603 -17 16 -271 231 -312 264 -104 83 -313 230 -471 330 -211 134 -555
312 -780 403 -71 29 -139 56 -150 61 -11 5 -47 18 -80 29 -33 12 -69 25 -80
30 -68 29 -505 152 -585 165 -14 2 -54 10 -90 19 -36 8 -94 20 -130 26 -36 5
-78 12 -95 15 -105 17 -170 26 -300 40 -27 3 -72 9 -100 12 -54 8 -9279 16
-9286 8z m1921 -6991 c0 -7 -22 -36 -49 -65 -27 -29 -47 -58 -44 -63 3 -5 1
-6 -5 -2 -6 3 -13 -3 -17 -14 -4 -11 -11 -18 -16 -15 -5 4 -9 2 -9 -3 0 -5
-10 -20 -22 -34 -13 -14 -48 -54 -78 -89 -30 -35 -65 -74 -77 -86 -12 -13 -20
-23 -16 -23 3 0 -9 -13 -27 -30 -18 -16 -29 -30 -26 -30 3 0 -11 -17 -31 -38
-71 -71 -148 -165 -145 -176 2 -6 0 -8 -4 -4 -3 4 -19 -8 -33 -26 -26 -32 -65
-76 -108 -123 -12 -12 -20 -23 -18 -23 3 0 -12 -17 -32 -38 -21 -21 -58 -62
-83 -91 -25 -30 -55 -64 -68 -77 -13 -13 -21 -24 -18 -24 3 0 -15 -20 -40 -45
-24 -25 -41 -45 -37 -45 4 0 -3 -7 -15 -16 -12 -8 -20 -20 -17 -25 4 -5 -1 -9
-9 -9 -9 0 -16 -3 -16 -7 0 -8 -14 -24 -118 -142 -31 -35 -64 -72 -72 -83 -8
-11 -28 -33 -45 -50 -16 -17 -50 -57 -76 -89 -25 -32 -49 -55 -53 -52 -3 3 -6
1 -6 -6 0 -7 -12 -26 -27 -42 -16 -16 -38 -41 -51 -54 -13 -14 -20 -25 -17
-25 4 0 -7 -12 -24 -26 -17 -14 -28 -31 -24 -36 3 -7 1 -8 -5 -4 -7 4 -12 1
-12 -9 0 -9 -4 -13 -10 -10 -5 3 -10 2 -10 -2 0 -5 -13 -23 -29 -41 -17 -17
-27 -32 -24 -32 4 0 -7 -12 -25 -26 -17 -15 -29 -30 -26 -35 3 -5 -2 -9 -10
-9 -9 0 -16 -4 -16 -9 0 -6 -22 -33 -50 -62 -27 -29 -50 -58 -50 -66 0 -8 -4
-11 -10 -8 -5 3 -10 2 -10 -2 0 -5 -18 -28 -40 -51 -22 -22 -40 -44 -40 -47 0
-3 -16 -21 -35 -39 -19 -19 -35 -37 -35 -40 0 -3 -12 -18 -27 -34 -16 -16 -48
-53 -73 -82 -25 -29 -53 -60 -62 -68 -9 -9 -15 -19 -12 -24 3 -5 2 -7 -3 -6
-4 2 -9 0 -11 -4 -2 -4 -18 -23 -37 -43 -19 -19 -35 -40 -35 -45 0 -6 -6 -10
-14 -10 -8 0 -18 -9 -21 -20 -3 -11 -11 -20 -16 -20 -5 0 -9 -4 -9 -9 0 -5
-15 -25 -32 -43 -57 -60 -126 -138 -121 -138 2 0 -8 -11 -23 -25 -15 -14 -25
-25 -22 -25 3 0 -25 -32 -63 -72 -37 -39 -66 -75 -64 -79 3 -4 -2 -9 -10 -13
-22 -8 -19 -20 21 -62 52 -58 74 -82 136 -156 31 -36 59 -64 62 -60 3 3 6 -1
6 -9 0 -8 18 -32 40 -52 23 -20 38 -37 35 -37 -3 0 4 -10 15 -22 12 -13 38
-42 58 -66 20 -24 61 -68 90 -99 30 -30 48 -52 40 -48 -7 5 -4 -1 7 -12 11
-10 45 -48 75 -83 30 -35 74 -84 98 -108 23 -25 42 -47 42 -49 0 -5 108 -128
166 -189 23 -24 39 -46 36 -49 -3 -3 0 -5 6 -5 6 0 14 -9 17 -20 3 -11 11 -20
16 -20 6 0 17 -7 25 -15 9 -8 13 -15 9 -15 -3 0 6 -12 20 -26 14 -14 33 -36
41 -50 9 -13 21 -21 27 -17 5 3 7 2 4 -4 -3 -5 16 -33 44 -62 27 -28 49 -56
49 -62 0 -5 7 -9 15 -9 8 0 15 -6 15 -12 0 -7 27 -42 60 -78 32 -36 76 -84 97
-108 21 -24 57 -63 79 -87 23 -25 40 -45 37 -45 -2 0 13 -19 34 -42 21 -22 48
-52 61 -66 12 -14 22 -29 22 -34 0 -5 5 -6 10 -3 6 3 10 1 10 -6 0 -7 19 -31
42 -53 23 -23 41 -42 39 -44 -4 -6 37 -52 47 -52 6 0 14 -5 18 -12 5 -7 2 -8
-7 -3 -8 4 4 -12 27 -36 22 -24 52 -58 66 -76 14 -18 29 -29 32 -26 3 4 6 -1
6 -10 0 -8 11 -24 25 -35 14 -11 25 -24 25 -30 0 -5 16 -24 35 -41 19 -17 35
-35 35 -40 0 -5 14 -21 31 -35 17 -14 27 -26 23 -26 -4 0 -1 -6 7 -12 13 -11
77 -83 171 -193 15 -16 42 -48 62 -70 19 -22 36 -44 36 -48 0 -5 5 -5 12 -1 6
4 8 3 4 -4 -3 -6 6 -20 20 -31 15 -12 23 -21 19 -21 -4 0 17 -23 46 -52 29
-28 46 -48 38 -43 -14 8 33 -46 98 -112 18 -18 29 -33 26 -33 -4 0 14 -20 39
-45 25 -25 43 -45 40 -45 -3 0 3 -9 13 -20 10 -11 16 -20 14 -21 -2 0 -1338
-1 -2969 -2 l-2965 -2 0 738 c0 490 3 737 10 738 5 0 614 1 1351 1 l1342 1
-20 21 c-19 20 -59 68 -94 111 -8 11 -13 14 -9 8 3 -7 4 -13 1 -13 -3 0 -12
16 -21 35 -10 19 -25 37 -36 40 -10 4 -19 11 -19 17 0 6 -13 24 -30 40 -16 15
-30 31 -30 34 0 3 -11 18 -24 32 -65 72 -86 97 -86 104 0 5 -7 8 -15 8 -8 0
-15 5 -15 11 0 10 -17 31 -87 106 -18 19 -33 37 -33 40 0 3 -16 21 -35 39 -18
19 -32 34 -29 34 5 0 -40 51 -107 122 -20 21 -35 38 -32 38 2 0 -12 17 -31 38
-18 20 -44 50 -57 66 -13 15 -39 44 -56 64 -18 20 -33 40 -33 45 0 4 -5 5 -10
2 -5 -3 -10 -1 -10 5 0 7 -13 26 -29 43 -68 74 -81 90 -81 98 0 5 -7 9 -17 9
-9 0 -14 3 -10 6 3 3 -7 20 -23 38 -17 17 -30 35 -30 39 0 5 -5 5 -10 2 -6 -4
-9 -2 -8 3 2 5 -20 35 -49 68 -28 32 -69 79 -90 104 -21 24 -46 52 -55 62 -10
10 -18 20 -18 22 0 3 -18 23 -40 45 -22 22 -40 43 -40 47 0 4 -8 12 -17 19
-16 12 -14 16 15 49 18 20 32 41 32 47 0 6 5 7 10 4 6 -3 10 -2 10 3 0 6 12
23 28 40 54 59 90 102 85 102 -2 0 9 12 26 26 17 14 28 31 24 36 -3 7 -1 8 5
4 7 -4 12 -1 12 9 0 9 5 13 10 10 6 -3 10 -2 10 4 0 5 19 31 43 57 23 26 41
51 39 56 -1 5 2 7 8 3 5 -3 10 -3 10 2 0 4 18 27 40 51 22 23 38 42 35 42 -2
0 6 10 18 23 72 75 124 136 120 140 -3 3 5 10 16 17 12 6 19 15 16 21 -4 5 1
9 9 9 9 0 16 3 16 8 0 4 15 23 33 44 17 20 50 57 72 83 50 59 51 60 100 116
109 124 150 174 147 182 -1 5 2 6 8 2 5 -3 10 1 10 10 0 9 5 13 10 10 6 -3 10
-2 10 4 0 5 12 22 28 38 35 37 68 77 68 83 0 3 19 24 44 48 24 23 41 42 38 42
-4 0 9 16 29 35 20 19 33 35 30 35 -3 0 10 15 29 34 20 19 36 38 37 43 1 4 5
7 10 5 4 -1 7 2 7 6 0 5 9 18 20 30 11 11 16 23 12 25 -4 2 -596 5 -1317 5
-720 0 -1315 1 -1320 1 -7 1 -10 242 -10 736 0 729 0 734 20 737 11 2 1335 3
2942 3 2188 0 2923 -3 2923 -11z m4084 -120 c25 -71 46 -136 46 -142 0 -7 4
-12 10 -12 5 0 7 -7 4 -15 -4 -8 -1 -15 7 -15 7 0 10 -3 6 -6 -5 -5 27 -106
53 -169 5 -11 23 -63 40 -115 17 -52 38 -107 46 -121 7 -14 11 -29 7 -33 -3
-3 -1 -6 5 -6 6 0 9 -7 6 -15 -4 -8 -1 -15 6 -15 6 0 8 -4 5 -10 -3 -5 -3 -16
2 -22 11 -18 33 -78 39 -108 3 -13 11 -31 17 -39 7 -8 11 -16 10 -17 -1 -2 -1
-9 2 -16 28 -91 48 -146 56 -162 6 -10 13 -29 15 -42 2 -13 9 -36 16 -51 6
-16 12 -32 14 -38 1 -5 12 -37 25 -70 13 -33 22 -63 21 -67 -1 -5 3 -8 9 -8 5
0 7 -5 4 -10 -4 -6 -1 -17 5 -25 7 -8 9 -15 5 -15 -4 0 0 -11 9 -25 9 -14 14
-25 11 -25 -4 0 23 -84 45 -135 10 -24 23 -57 25 -67 2 -5 3 -9 5 -10 1 -2 3
-11 5 -21 2 -10 7 -26 11 -35 4 -9 8 -21 10 -27 4 -16 80 -227 93 -258 6 -16
11 -34 11 -41 0 -7 3 -16 8 -20 4 -4 8 -12 8 -17 1 -5 2 -10 4 -11 1 -2 3 -10
5 -18 5 -18 43 -127 55 -155 5 -11 18 -51 31 -90 12 -38 25 -74 29 -80 8 -13
33 -100 29 -101 -2 0 1 -7 7 -15 6 -8 17 -32 23 -54 7 -22 16 -49 21 -60 11
-25 61 -166 64 -180 1 -5 9 -30 19 -55 9 -25 42 -117 72 -205 31 -88 59 -167
62 -175 3 -8 7 -19 8 -25 3 -9 40 -112 52 -145 4 -8 7 -17 8 -20 7 -30 30 -88
38 -97 5 -7 7 -13 3 -13 -3 0 4 -24 15 -52 12 -29 22 -58 23 -65 1 -7 5 -16 9
-19 4 -4 7 -14 7 -22 0 -8 6 -28 14 -45 8 -18 28 -75 46 -127 17 -52 35 -104
40 -115 10 -23 22 -59 21 -62 -1 -3 26 -76 39 -108 12 -27 51 -138 53 -150 2
-5 5 -14 8 -20 4 -5 9 -23 13 -40 4 -16 13 -43 21 -60 18 -41 75 -210 75 -222
0 -6 -575 -9 -1662 -9 -915 1 -1670 0 -1678 -2 -12 -3 -36 -54 -54 -117 -2 -5
-5 -17 -8 -25 -29 -79 -40 -112 -42 -123 -1 -6 -8 -22 -14 -34 -7 -13 -10 -23
-7 -23 3 0 -4 -19 -16 -42 -12 -24 -21 -43 -19 -43 4 0 -18 -72 -30 -100 -5
-11 -24 -65 -43 -120 -19 -55 -47 -134 -61 -175 -15 -41 -29 -79 -30 -85 -2
-5 -6 -17 -9 -25 -9 -21 -69 -193 -72 -205 -1 -5 -5 -17 -8 -25 -9 -20 -88
-242 -92 -255 -1 -5 -6 -21 -12 -34 l-10 -24 -772 0 c-424 0 -774 3 -777 6 -3
3 -2 12 2 19 5 7 9 15 10 18 0 3 3 12 6 20 33 85 66 190 60 190 -4 0 -2 4 3 8
8 6 49 113 50 132 1 3 6 15 13 27 6 12 13 30 15 40 2 10 7 26 11 35 4 9 9 22
10 30 2 7 6 20 9 28 3 8 17 49 32 90 15 41 32 89 38 105 7 17 12 32 12 35 1
10 28 85 34 95 3 6 7 16 8 22 6 25 10 38 22 68 7 17 14 38 16 47 2 9 8 25 13
35 6 10 11 23 12 28 4 17 8 28 30 90 12 33 24 67 26 75 2 8 24 71 48 140 125
352 154 440 148 440 -4 0 -2 4 3 8 6 4 21 39 34 77 13 39 30 85 38 103 8 18
12 36 8 41 -3 5 -2 11 3 13 6 2 41 92 56 143 2 6 6 18 9 28 4 9 10 25 14 35 3
9 7 23 9 30 1 8 6 21 10 30 4 9 8 19 9 22 1 3 4 12 8 20 20 53 79 228 80 240
1 8 4 17 7 20 5 5 60 156 64 175 1 6 4 15 8 20 3 6 11 29 17 51 8 31 17 43 34
45 12 2 534 4 1160 3 625 0 1137 3 1137 8 0 4 -4 17 -9 30 -10 24 -21 57 -20
61 0 1 -11 31 -24 67 -14 36 -34 94 -46 130 -13 36 -25 72 -28 80 -4 8 -5 18
-5 23 1 4 -3 7 -10 7 -6 0 -9 3 -5 6 4 5 -30 114 -60 194 -3 8 -7 20 -9 25
-19 60 -39 111 -46 113 -4 2 -6 8 -2 13 3 5 2 15 -3 22 -4 6 -8 17 -10 22 -2
13 -42 124 -53 150 -5 11 -18 52 -31 90 -12 39 -25 74 -30 79 -5 6 -9 20 -9
31 0 12 -3 25 -7 29 -4 3 -8 12 -9 19 -2 7 -19 57 -39 112 -20 55 -38 111 -41
125 -3 13 -9 29 -13 35 -4 5 -21 48 -36 95 -15 47 -32 96 -38 110 -5 14 -11
31 -13 38 -1 8 -6 21 -10 30 -4 9 -9 26 -11 37 -2 10 -7 22 -11 25 -4 3 -9 16
-11 30 -1 14 -8 28 -15 32 -6 4 -8 8 -4 8 4 0 -3 28 -16 63 -13 34 -33 91 -45
127 -13 36 -25 72 -28 80 -4 8 -7 18 -8 23 -2 4 -3 8 -5 10 -1 1 -3 9 -5 17
-2 8 -9 29 -16 45 -6 17 -14 36 -16 43 -1 6 -5 18 -6 25 -5 15 -16 45 -27 72
-5 11 -14 38 -21 60 -6 22 -16 46 -22 53 -5 6 -7 12 -3 12 3 0 1 12 -5 28 -6
15 -35 97 -65 182 -30 85 -57 162 -61 170 -3 8 -7 20 -8 25 -3 12 -83 239
-118 337 -14 37 -23 68 -22 70 2 2 352 3 778 3 l775 0 46 -131z m7786 113 c0
-10 -4 -15 -10 -12 -5 3 -10 2 -10 -2 0 -5 -13 -23 -30 -41 -16 -18 -30 -38
-30 -43 0 -6 -3 -8 -7 -6 -5 3 -24 -17 -43 -43 -19 -27 -38 -46 -42 -44 -7 5
-12 -10 -9 -28 0 -5 -4 -8 -10 -8 -11 0 -64 -59 -64 -71 0 -4 -4 -11 -9 -16
-5 -5 -6 -2 -2 7 6 12 5 12 -6 -1 -71 -86 -96 -114 -110 -132 -10 -11 -18 -25
-18 -30 0 -6 -3 -8 -6 -4 -7 7 -60 -54 -57 -65 2 -4 -3 -8 -11 -8 -8 0 -18 -9
-21 -20 -3 -11 -11 -20 -16 -20 -5 0 -19 -16 -30 -35 -12 -19 -25 -32 -30 -29
-5 3 -9 0 -9 -6 0 -10 -48 -69 -82 -99 -10 -8 -18 -19 -18 -24 0 -5 -11 -18
-25 -29 -14 -11 -22 -24 -19 -30 4 -7 2 -8 -4 -4 -7 4 -12 4 -12 -1 0 -4 -15
-24 -33 -44 -114 -128 -152 -173 -152 -180 0 -4 -4 -11 -9 -16 -5 -5 -6 -2 -2
7 4 8 0 6 -8 -5 -9 -11 -38 -44 -64 -74 -26 -30 -46 -58 -45 -62 2 -4 -6 -11
-17 -14 -11 -4 -20 -10 -20 -15 0 -5 -12 -21 -27 -37 -25 -26 -74 -82 -158
-181 -16 -20 -42 -48 -57 -64 -15 -15 -25 -28 -22 -28 3 0 -10 -13 -28 -30
-18 -16 -30 -30 -26 -30 4 0 -11 -18 -33 -41 -21 -22 -39 -46 -39 -51 0 -6 -3
-8 -6 -5 -4 4 -20 -10 -35 -31 -33 -42 -57 -70 -114 -132 -22 -24 -61 -70 -86
-102 -26 -31 -49 -54 -53 -51 -3 3 -6 1 -6 -4 0 -11 -20 -37 -75 -97 -42 -46
-95 -107 -130 -150 -16 -21 -43 -52 -60 -70 -16 -17 -52 -58 -80 -91 -27 -32
-55 -64 -62 -70 -7 -7 -9 -15 -6 -19 4 -3 -1 -6 -10 -6 -9 0 -17 -4 -17 -9 0
-5 -17 -27 -37 -50 -41 -43 -63 -68 -134 -152 -26 -30 -57 -66 -70 -80 -13
-14 -44 -50 -68 -78 -24 -29 -57 -66 -73 -82 -16 -16 -27 -29 -24 -29 3 0 -7
-13 -22 -28 -15 -16 -45 -50 -67 -76 -22 -26 -53 -63 -70 -81 -78 -85 -95
-105 -91 -105 3 0 -11 -16 -31 -35 -20 -19 -33 -35 -30 -35 3 0 -13 -18 -35
-40 -23 -22 -38 -40 -34 -40 4 0 -6 -12 -23 -26 -17 -14 -28 -30 -25 -35 3 -5
2 -8 -3 -7 -4 2 -10 -1 -13 -7 -2 -5 -17 -21 -32 -33 -16 -13 -26 -28 -23 -32
3 -5 -4 -11 -15 -15 -11 -3 -20 -11 -20 -16 0 -5 -8 -17 -17 -27 -54 -56 -103
-115 -103 -123 0 -6 -4 -7 -10 -4 -5 3 -10 2 -10 -4 0 -6 -13 -24 -30 -41 -16
-16 -28 -30 -25 -30 2 0 -13 -17 -33 -39 -20 -21 -55 -60 -77 -87 -22 -26 -48
-54 -57 -63 -10 -8 -18 -21 -18 -29 0 -7 -4 -11 -8 -8 -5 3 -19 -12 -33 -33
-13 -22 -27 -37 -31 -34 -5 2 -8 0 -8 -6 0 -6 -12 -22 -27 -36 -15 -14 -24
-25 -20 -25 5 0 -5 -12 -22 -26 -17 -14 -31 -33 -31 -42 0 -8 -3 -13 -6 -9 -7
7 -60 -54 -57 -65 2 -4 -5 -8 -14 -8 -9 0 -14 -3 -10 -6 3 -3 -8 -18 -24 -31
-16 -14 -28 -27 -26 -29 1 -2 -24 -32 -56 -66 -33 -35 -68 -76 -78 -93 -11
-16 -19 -26 -19 -21 0 5 -10 -4 -22 -20 -29 -37 -62 -75 -115 -133 -23 -25
-43 -52 -43 -59 0 -7 -4 -10 -10 -7 -5 3 -10 1 -10 -4 0 -6 -11 -21 -25 -33
-13 -11 -22 -25 -20 -29 3 -4 -4 -10 -15 -14 -11 -3 -20 -10 -20 -15 0 -5 -12
-21 -27 -37 -16 -16 -44 -47 -63 -68 l-34 -40 -1 -572 c0 -314 -4 -575 -8
-579 -7 -7 -1401 -12 -1444 -5 l-23 3 0 855 0 854 26 24 c15 14 23 25 19 25
-4 0 4 9 19 21 14 11 26 28 26 36 0 9 3 14 6 10 8 -7 54 46 54 63 0 6 3 9 8 7
4 -3 13 1 20 9 7 8 10 14 6 14 -4 0 5 10 20 21 15 12 25 23 23 25 -2 2 17 26
42 53 25 27 57 63 71 79 14 15 42 47 63 70 21 23 34 42 30 42 -4 1 3 7 17 15
14 8 21 14 16 15 -4 0 6 13 23 29 17 16 31 32 31 35 0 3 15 21 33 40 52 56
100 109 137 156 19 23 46 54 60 66 14 13 22 24 19 24 -3 0 20 28 52 62 32 33
61 69 65 80 3 10 10 16 15 13 5 -4 9 -2 9 2 0 5 20 30 44 56 24 26 42 47 40
47 -2 0 20 25 49 56 29 31 50 57 48 58 -2 0 14 19 35 41 64 66 105 115 97 115
-5 1 3 7 17 15 14 8 22 14 18 15 -3 0 6 12 20 28 15 15 45 49 67 76 22 26 54
63 70 81 17 17 48 53 70 80 22 26 50 58 63 71 13 13 20 24 17 24 -3 0 10 15
30 32 19 18 35 39 35 46 0 7 5 10 10 7 6 -3 10 -3 10 2 0 4 13 22 28 39 15 18
50 58 77 89 28 32 61 69 75 82 14 13 22 23 18 23 -4 0 8 16 28 35 19 19 33 35
30 35 -2 0 10 15 28 33 38 39 81 90 83 97 1 3 26 31 57 63 30 31 54 57 51 57
-2 0 6 10 18 23 53 57 104 117 99 117 -4 0 4 7 16 16 12 8 22 22 22 30 0 8 5
12 10 9 6 -3 10 -2 10 2 0 5 18 28 40 51 22 22 40 44 40 47 0 3 10 16 23 28
12 12 49 54 82 92 33 39 75 87 95 108 19 21 34 43 32 49 -1 5 1 7 5 5 5 -3 14
1 21 9 7 8 9 14 5 14 -4 0 -2 4 5 9 7 4 -585 8 -1315 8 l-1328 0 -3 736 -2
736 22 3 c13 2 1338 3 2946 3 2812 0 2922 -1 2922 -18z"/>
</g>
</svg>
