<?xml version="1.0" encoding="UTF-8" ?>
<!DOCTYPE svg PUBLIC "-//W3C//DTD SVG 1.1//EN" "http://www.w3.org/Graphics/SVG/1.1/DTD/svg11.dtd">
<svg width="1597pt" height="642pt" viewBox="0 0 1597 642" version="1.1" xmlns="http://www.w3.org/2000/svg">
<g id="#fefdffff">
<path fill="#fefdff" opacity="1.00" d=" M 170.63 0.00 L 470.30 0.00 C 509.22 1.80 547.37 16.69 577.12 41.84 C 602.85 63.38 622.38 92.26 632.65 124.22 C 638.47 142.20 641.39 161.11 641.29 180.01 C 641.29 268.32 641.29 356.64 641.29 444.95 C 641.21 456.33 641.65 467.73 640.47 479.07 C 637.24 513.31 623.79 546.47 602.33 573.33 C 573.17 610.28 528.99 634.97 482.15 640.06 C 475.61 640.63 469.10 641.41 462.57 642.00 L 180.10 642.00 C 166.76 640.88 153.33 639.90 140.24 636.90 C 106.25 629.37 74.66 611.56 50.50 586.52 C 19.48 554.72 1.03 511.07 0.00 466.64 L 0.00 175.26 C 0.55 148.29 7.34 121.47 19.69 97.49 C 33.94 69.70 55.58 45.76 81.78 28.76 C 108.16 11.52 139.17 1.61 170.63 0.00 M 35.40 282.20 C 64.91 282.18 94.43 282.17 123.94 282.20 C 108.32 300.18 92.80 318.24 77.19 336.23 C 93.16 354.84 109.20 373.41 125.43 391.80 C 95.42 391.84 65.41 391.82 35.40 391.81 C 35.39 408.27 35.39 424.73 35.40 441.19 C 101.47 441.13 167.55 441.27 233.62 441.12 C 203.50 405.92 172.83 371.19 142.35 336.29 C 170.73 303.70 199.10 271.10 227.48 238.51 C 229.10 236.71 230.71 234.89 232.09 232.89 C 166.53 232.72 100.97 232.88 35.40 232.81 C 35.39 249.27 35.39 265.73 35.40 282.20 M 314.30 232.90 C 327.24 269.75 340.12 306.61 353.01 343.47 C 327.27 343.51 301.53 343.47 275.80 343.49 C 264.40 376.04 252.93 408.57 241.58 441.14 C 258.92 441.16 276.27 441.15 293.61 441.14 C 299.28 424.96 304.98 408.79 310.71 392.63 C 348.03 392.62 385.36 392.66 422.68 392.61 C 403.87 339.36 385.15 286.09 366.33 232.85 C 348.98 232.89 331.64 232.78 314.30 232.90 M 430.94 232.81 C 430.93 249.27 430.93 265.73 430.94 282.19 C 460.47 282.21 489.99 282.19 519.51 282.21 C 489.89 316.09 460.38 350.08 430.91 384.10 C 430.97 403.13 430.91 422.16 430.94 441.19 C 447.37 441.19 463.79 441.21 480.22 441.18 C 480.24 428.78 480.22 416.37 480.23 403.97 C 479.99 402.35 481.50 401.40 482.36 400.27 C 508.12 370.74 533.78 341.12 559.53 311.57 C 582.20 285.30 605.24 259.33 627.72 232.90 C 562.13 232.69 496.53 232.86 430.94 232.81 Z" />
<path fill="#fefdff" opacity="1.00" d=" M 771.67 150.09 C 791.61 150.09 811.56 150.07 831.50 150.09 C 831.49 186.41 831.51 222.72 831.50 259.03 C 864.56 237.92 907.59 234.15 944.17 247.88 C 959.84 253.84 974.06 263.34 986.06 275.00 C 998.75 287.10 1009.36 301.55 1016.11 317.78 C 1026.61 343.00 1028.08 371.61 1021.87 398.09 C 1014.46 429.60 993.06 456.56 966.42 474.30 C 937.92 493.19 901.47 497.83 868.46 490.32 C 837.12 483.12 809.84 462.42 792.02 435.97 C 777.64 414.63 771.14 388.58 771.67 363.00 C 771.67 292.03 771.66 221.06 771.67 150.09 M 885.57 300.84 C 864.89 304.56 846.86 319.10 837.77 337.90 C 831.36 351.21 830.03 366.64 832.90 381.04 C 836.01 396.57 845.28 410.56 857.78 420.18 C 879.47 437.35 912.25 438.56 935.22 423.18 C 949.53 413.71 960.45 398.82 964.08 381.93 C 967.27 366.99 965.88 350.86 959.01 337.11 C 952.45 324.03 941.62 313.13 928.58 306.52 C 915.42 299.83 900.01 298.23 885.57 300.84 Z" />
<path fill="#fefdff" opacity="1.00" d=" M 1114.41 260.40 C 1136.97 244.91 1164.90 238.39 1192.05 240.06 C 1213.43 241.15 1234.54 247.86 1252.39 259.73 C 1277.64 276.51 1297.85 301.74 1305.96 331.20 C 1308.88 341.22 1310.08 351.62 1310.93 361.98 C 1310.90 405.88 1310.93 449.77 1310.91 493.67 C 1290.97 493.66 1271.03 493.66 1251.09 493.67 C 1251.07 487.28 1251.08 480.89 1251.08 474.50 C 1235.11 484.54 1216.88 491.05 1198.09 492.98 C 1176.01 495.20 1153.19 492.40 1132.82 483.35 C 1117.56 476.65 1103.96 466.52 1092.45 454.53 C 1077.59 439.38 1066.36 420.51 1061.12 399.88 C 1055.04 375.75 1055.57 349.82 1063.31 326.12 C 1072.17 299.18 1091.27 276.39 1114.41 260.40 M 1171.56 300.73 C 1150.56 304.29 1132.20 319.01 1123.05 338.09 C 1116.56 351.72 1115.31 367.55 1118.53 382.22 C 1122.97 402.22 1137.50 419.44 1156.01 427.99 C 1175.75 436.88 1199.99 435.87 1218.54 424.48 C 1232.15 416.14 1242.96 403.04 1247.87 387.79 C 1253.15 370.92 1252.06 351.86 1243.86 336.09 C 1236.94 322.88 1225.66 311.98 1212.15 305.64 C 1199.58 299.77 1185.17 298.40 1171.56 300.73 Z" />
<path fill="#fefdff" opacity="1.00" d=" M 1421.05 248.99 C 1441.81 240.44 1464.86 238.20 1487.05 240.94 C 1506.11 243.30 1524.57 250.33 1540.30 261.36 C 1551.80 269.42 1561.99 279.33 1570.70 290.33 C 1584.79 308.23 1593.47 330.24 1595.58 352.91 C 1595.79 357.61 1596.86 362.25 1596.77 366.97 C 1595.86 385.56 1592.74 404.39 1584.41 421.22 C 1576.23 438.31 1563.76 453.09 1549.34 465.27 C 1536.44 476.11 1521.33 484.37 1505.09 488.93 C 1470.81 498.51 1432.38 493.83 1402.25 474.52 C 1402.25 522.56 1402.24 570.61 1402.25 618.65 C 1382.31 618.68 1362.36 618.66 1342.42 618.66 C 1342.43 535.45 1342.38 452.22 1342.44 369.01 C 1342.04 349.74 1345.73 330.27 1354.05 312.83 C 1360.78 298.54 1370.53 285.81 1381.93 274.93 C 1393.23 263.98 1406.46 254.95 1421.05 248.99 M 1456.63 300.79 C 1438.61 303.93 1422.53 315.32 1412.65 330.58 C 1402.74 345.62 1400.05 364.75 1403.86 382.20 C 1407.46 398.51 1417.87 412.95 1431.54 422.38 C 1446.93 433.22 1467.03 436.29 1485.23 432.14 C 1501.74 428.36 1516.27 417.60 1525.61 403.59 C 1536.38 387.77 1538.94 367.21 1534.15 348.87 C 1529.90 332.78 1519.06 318.76 1505.12 309.83 C 1490.95 300.57 1473.15 297.81 1456.63 300.79 Z" />
</g>
</svg>
