<?xml version="1.0" encoding="UTF-8" ?>
<!DOCTYPE svg PUBLIC "-//W3C//DTD SVG 1.1//EN" "http://www.w3.org/Graphics/SVG/1.1/DTD/svg11.dtd">
<svg width="1597pt" height="642pt" viewBox="0 0 1597 642" version="1.1" xmlns="http://www.w3.org/2000/svg">
<g id="#206bc4ff">
<path fill="#206bc4" opacity="1.00" d=" M 172.17 0.00 L 469.65 0.00 C 511.63 1.82 552.74 18.87 583.50 47.53 C 614.37 75.87 634.81 115.32 639.85 156.94 C 641.71 170.55 641.17 184.31 641.25 198.01 C 641.25 285.00 641.25 371.98 641.25 458.97 C 641.48 477.93 638.83 496.94 633.16 515.04 C 622.79 548.59 602.20 578.84 574.94 600.95 C 545.10 625.35 507.21 639.70 468.68 641.01 C 447.47 641.60 426.25 641.14 405.03 641.29 C 344.70 641.28 284.38 641.29 224.05 641.28 C 206.94 641.19 189.81 641.52 172.71 641.05 C 140.54 639.87 108.73 629.84 81.78 612.23 C 52.58 593.30 29.09 565.71 15.12 533.85 C 5.65 512.41 0.58 489.09 0.00 465.68 L 0.00 175.22 C 0.58 153.65 4.89 132.17 13.03 112.17 C 26.96 77.54 52.05 47.57 83.61 27.65 C 110.02 10.84 140.91 1.30 172.17 0.00 M 35.48 236.96 C 35.67 252.02 35.13 267.16 35.74 282.17 C 65.19 282.03 94.64 282.13 124.09 282.12 C 108.53 300.19 92.93 318.23 77.31 336.24 C 93.29 354.87 109.46 373.33 125.52 391.90 C 96.33 391.87 67.14 391.93 37.95 391.87 C 37.32 391.93 36.06 392.05 35.42 392.11 C 35.57 406.72 35.44 421.33 35.49 435.93 C 35.58 437.66 35.17 439.49 35.76 441.18 C 101.62 440.98 167.50 441.22 233.36 441.06 C 203.38 405.77 172.48 371.22 142.24 336.16 C 172.07 302.08 201.76 267.86 231.49 233.69 L 231.56 232.87 C 166.28 232.88 101.00 232.96 35.72 232.83 C 35.30 234.16 35.50 235.58 35.48 236.96 M 314.45 232.94 C 323.19 258.01 331.98 283.05 340.74 308.11 C 344.72 319.97 349.33 331.66 352.91 343.62 C 327.23 343.48 301.56 343.61 275.88 343.55 C 264.47 376.06 253.06 408.56 241.68 441.07 C 259.00 441.00 276.34 441.29 293.65 440.93 C 299.18 424.74 304.95 408.64 310.67 392.52 C 347.98 392.48 385.32 392.75 422.62 392.38 C 403.66 339.47 385.22 286.37 366.42 233.40 L 365.99 232.97 C 348.81 232.86 331.63 232.92 314.45 232.94 M 431.06 232.89 C 431.05 249.29 431.05 265.70 431.06 282.11 C 460.63 282.10 490.21 282.10 519.78 282.11 C 490.09 315.99 460.62 350.08 431.06 384.08 C 431.05 403.09 431.05 422.10 431.06 441.12 C 447.41 441.09 463.77 441.12 480.13 441.10 C 480.33 428.20 479.74 415.16 480.42 402.34 C 529.44 345.86 578.66 289.54 627.57 232.97 C 562.07 232.79 496.56 232.95 431.06 232.89 Z" />
</g>
<g id="#4a4a4aff">
<path fill="#4a4a4a" opacity="1.00" d=" M 771.68 150.07 C 791.64 150.17 811.61 149.93 831.56 150.19 C 831.34 186.40 831.71 222.63 831.38 258.84 C 841.88 252.90 852.83 247.46 864.57 244.37 C 886.50 238.39 910.00 238.34 932.01 243.98 C 951.67 249.06 969.76 259.56 984.47 273.49 C 1002.34 289.93 1016.10 311.22 1021.79 334.97 C 1029.96 369.03 1025.04 406.91 1005.09 436.12 C 987.71 461.46 962.00 481.92 931.93 489.60 C 898.52 498.04 861.33 493.78 832.06 475.04 C 803.81 457.04 781.71 428.34 774.80 395.23 C 770.53 377.09 771.85 358.41 771.67 339.94 C 771.67 276.65 771.65 213.36 771.68 150.07 M 886.52 300.67 C 866.24 303.99 848.39 317.74 838.84 335.77 C 831.73 349.17 829.97 365.02 832.67 379.85 C 837.48 406.49 860.28 428.82 887.06 432.97 C 902.35 435.44 918.63 433.10 932.05 425.15 C 947.91 415.85 960.16 400.07 964.06 381.99 C 967.28 367.01 965.88 350.84 958.99 337.06 C 952.43 324.02 941.63 313.15 928.62 306.54 C 915.74 299.98 900.69 298.30 886.52 300.67 Z" />
<path fill="#4a4a4a" opacity="1.00" d=" M 1134.36 249.54 C 1158.74 239.23 1186.35 237.38 1212.15 242.77 C 1242.64 249.19 1269.44 268.51 1287.66 293.46 C 1300.57 311.10 1308.25 332.36 1310.18 354.09 C 1311.37 362.68 1310.78 371.35 1310.92 380.00 C 1310.88 417.90 1310.99 455.80 1310.86 493.71 C 1290.96 493.64 1271.06 493.62 1251.16 493.72 C 1250.96 487.34 1251.18 480.96 1251.04 474.58 C 1235.61 484.14 1218.20 490.61 1200.14 492.75 C 1176.87 495.45 1152.67 492.54 1131.30 482.66 C 1113.61 474.60 1098.32 461.93 1085.79 447.18 C 1072.84 431.93 1063.67 413.47 1059.71 393.84 C 1053.15 361.31 1058.25 325.77 1077.05 298.01 C 1091.29 277.12 1110.98 259.50 1134.36 249.54 M 1171.50 300.74 C 1150.56 304.31 1132.24 318.99 1123.09 338.01 C 1116.72 351.34 1115.37 366.79 1118.31 381.20 C 1121.24 395.65 1129.51 408.78 1140.75 418.23 C 1154.43 430.15 1173.18 435.46 1191.13 433.56 C 1210.38 431.96 1228.17 420.86 1239.17 405.14 C 1250.10 389.96 1253.41 370.05 1249.54 351.90 C 1246.23 336.10 1236.48 322.00 1223.57 312.46 C 1208.92 301.29 1189.48 297.51 1171.50 300.74 Z" />
<path fill="#4a4a4a" opacity="1.00" d=" M 1422.39 248.45 C 1442.77 240.36 1465.25 238.26 1486.94 240.93 C 1506.81 243.36 1526.03 250.90 1542.20 262.72 C 1565.70 279.99 1584.65 304.48 1592.00 333.01 C 1594.33 341.54 1595.45 350.33 1596.16 359.13 C 1597.21 365.07 1596.74 371.12 1595.91 377.05 C 1594.52 397.73 1587.91 418.08 1576.38 435.33 C 1559.26 460.60 1533.94 481.16 1504.17 489.19 C 1472.78 497.63 1438.00 494.44 1409.39 478.68 C 1406.93 477.52 1404.81 475.70 1402.22 474.88 C 1402.29 517.60 1402.23 560.32 1402.25 603.04 C 1401.98 608.25 1402.77 613.67 1401.86 618.74 C 1382.05 618.56 1362.23 618.74 1342.42 618.65 C 1342.42 535.42 1342.40 452.18 1342.43 368.97 C 1342.07 350.02 1345.61 330.88 1353.66 313.66 C 1360.50 298.83 1370.59 285.65 1382.42 274.46 C 1393.95 263.38 1407.49 254.32 1422.39 248.45 M 1460.19 300.24 C 1442.93 302.26 1426.97 311.81 1416.34 325.44 C 1406.07 338.14 1401.28 354.79 1402.33 371.02 C 1403.08 390.35 1413.35 408.67 1428.66 420.28 C 1442.82 431.47 1461.69 435.76 1479.43 433.22 C 1497.49 430.86 1513.91 420.14 1524.38 405.38 C 1534.86 391.06 1538.40 372.41 1535.49 355.04 C 1532.78 337.90 1522.58 322.38 1508.63 312.23 C 1494.91 301.93 1477.07 297.99 1460.19 300.24 Z" />
<path fill="#4a4a4a" opacity="1.00" d=" M 172.71 641.05 C 189.81 641.52 206.94 641.19 224.05 641.28 C 284.38 641.29 344.70 641.28 405.03 641.29 C 426.25 641.14 447.47 641.60 468.68 641.01 L 470.03 642.00 L 172.72 642.00 L 172.71 641.05 Z" />
</g>
</svg>
