<?xml version="1.0" encoding="UTF-8" ?>
<!DOCTYPE svg PUBLIC "-//W3C//DTD SVG 1.1//EN" "http://www.w3.org/Graphics/SVG/1.1/DTD/svg11.dtd">
<svg width="1597pt" height="642pt" viewBox="0 0 1597 642" version="1.1" xmlns="http://www.w3.org/2000/svg">
<g id="#206bc4ff">
<path fill="#206bc4" opacity="1.00" d=" M 172.36 0.00 L 468.61 0.00 C 507.40 1.39 545.56 15.85 575.50 40.56 C 601.98 62.23 622.11 91.58 632.58 124.17 C 638.41 142.16 641.31 161.07 641.25 179.98 C 641.25 263.32 641.25 346.66 641.25 430.00 C 640.95 450.01 642.37 470.18 639.02 490.02 C 633.57 524.78 617.46 557.74 593.52 583.51 C 570.72 608.24 540.84 626.38 508.32 635.04 C 493.23 639.21 477.57 640.79 461.99 641.67 C 367.64 641.68 273.29 641.70 178.94 641.66 C 164.89 640.81 150.79 639.52 137.10 636.11 C 103.84 628.11 73.08 610.23 49.53 585.44 C 19.07 553.73 1.12 510.51 0.00 466.56 L 0.00 175.36 C 0.64 149.16 6.95 123.09 18.67 99.63 C 33.63 69.44 57.29 43.65 86.06 26.12 C 111.97 10.22 142.00 1.22 172.36 0.00 M 35.56 233.05 C 35.56 249.36 35.56 265.66 35.56 281.97 C 65.17 281.99 94.77 281.95 124.38 281.99 C 108.76 300.12 93.09 318.19 77.45 336.30 C 93.55 354.89 109.68 373.44 125.78 392.02 C 95.71 392.05 65.64 392.02 35.56 392.03 C 35.56 408.34 35.56 424.64 35.56 440.95 C 101.46 440.95 167.36 440.96 233.26 440.95 C 203.03 405.91 172.54 371.11 142.03 336.31 C 171.98 301.88 201.97 267.50 231.89 233.05 C 166.45 233.04 101.01 233.05 35.56 233.05 M 314.58 233.05 C 327.46 269.92 340.38 306.77 353.26 343.63 C 327.49 343.65 301.72 343.63 275.95 343.64 C 264.55 376.07 253.19 408.50 241.82 440.94 C 259.05 440.94 276.29 441.01 293.52 440.91 C 299.13 424.75 304.87 408.64 310.54 392.50 C 347.84 392.49 385.14 392.51 422.44 392.49 C 403.70 339.35 384.96 286.20 366.22 233.05 C 349.01 233.04 331.79 233.04 314.58 233.05 M 431.10 233.05 C 431.11 249.36 431.10 265.66 431.11 281.97 C 460.71 281.99 490.32 281.96 519.93 281.99 C 490.34 316.07 460.71 350.11 431.11 384.18 C 431.10 403.10 431.11 422.03 431.10 440.95 C 447.41 440.94 463.72 440.98 480.03 440.93 C 480.22 428.10 479.70 415.20 480.25 402.42 C 529.23 345.90 578.41 289.54 627.43 233.06 C 561.99 233.04 496.55 233.05 431.10 233.05 Z" />
</g>
<g id="#4a4a4aff">
<path fill="#4a4a4a" opacity="1.00" d=" M 771.67 150.09 C 791.62 150.09 811.56 150.06 831.51 150.10 C 831.49 186.41 831.51 222.71 831.50 259.02 C 863.01 238.90 903.52 234.59 938.93 246.02 C 955.74 251.51 971.12 261.00 984.00 273.05 C 995.55 283.74 1005.59 296.22 1012.67 310.32 C 1019.71 324.21 1023.81 339.53 1025.05 355.04 C 1026.66 375.19 1024.22 395.86 1016.54 414.65 C 1006.37 439.58 987.56 460.52 965.13 475.13 C 949.51 485.10 931.49 491.16 913.08 492.99 C 891.93 495.08 870.13 492.70 850.43 484.54 C 825.80 474.33 804.83 455.94 790.47 433.58 C 778.19 414.40 772.23 391.66 771.65 369.02 C 771.69 296.04 771.65 223.06 771.67 150.09 M 886.44 300.68 C 867.66 303.78 850.93 315.85 841.02 331.96 C 832.42 345.66 829.83 362.58 832.41 378.42 C 836.54 404.66 858.10 427.08 884.10 432.41 C 899.55 435.58 916.25 433.80 930.19 426.20 C 947.31 416.89 960.53 400.09 964.31 380.83 C 967.20 366.18 965.71 350.46 958.97 337.03 C 952.29 323.76 941.21 312.73 927.87 306.17 C 915.13 299.89 900.37 298.35 886.44 300.68 Z" />
<path fill="#4a4a4a" opacity="1.00" d=" M 1162.12 241.56 C 1187.03 237.65 1213.29 240.19 1236.31 250.81 C 1261.26 262.44 1282.34 282.23 1295.76 306.23 C 1305.59 323.84 1310.16 343.98 1310.94 364.01 C 1310.88 407.23 1310.95 450.45 1310.91 493.67 C 1290.97 493.66 1271.03 493.66 1251.09 493.67 C 1251.06 487.28 1251.09 480.90 1251.08 474.52 C 1235.07 484.55 1216.84 491.07 1198.03 492.99 C 1175.93 495.20 1153.09 492.39 1132.72 483.30 C 1116.85 476.32 1102.80 465.63 1090.99 453.01 C 1077.40 438.72 1067.03 421.26 1061.75 402.22 C 1054.30 374.77 1055.41 344.72 1066.22 318.30 C 1073.44 300.63 1085.27 285.14 1099.32 272.33 C 1116.67 256.24 1138.70 245.20 1162.12 241.56 M 1171.49 300.74 C 1147.27 304.91 1126.46 323.86 1119.52 347.35 C 1116.21 358.77 1116.00 371.03 1118.61 382.62 C 1121.84 396.76 1130.17 409.52 1141.32 418.71 C 1154.94 430.31 1173.41 435.43 1191.11 433.56 C 1209.60 432.02 1226.80 421.72 1237.84 406.95 C 1248.87 392.72 1252.98 373.86 1250.33 356.19 C 1248.03 339.67 1238.75 324.53 1225.80 314.19 C 1210.90 301.79 1190.40 297.29 1171.49 300.74 Z" />
<path fill="#4a4a4a" opacity="1.00" d=" M 1434.55 244.38 C 1458.46 237.99 1484.22 238.23 1507.91 245.46 C 1535.51 253.93 1558.92 273.21 1575.32 296.66 C 1586.94 313.55 1593.92 333.53 1595.66 353.94 C 1596.05 359.28 1597.16 364.60 1596.69 369.98 C 1595.60 380.39 1594.81 390.90 1591.91 401.01 C 1584.04 430.84 1563.60 456.25 1538.40 473.49 C 1498.47 500.40 1442.70 500.32 1402.25 474.53 C 1402.27 522.55 1402.21 570.57 1402.28 618.60 C 1382.33 618.75 1362.37 618.63 1342.42 618.66 C 1342.40 538.79 1342.43 458.92 1342.40 379.04 C 1342.70 370.35 1342.01 361.63 1343.07 352.97 C 1345.07 331.62 1352.82 310.82 1365.55 293.54 C 1382.58 270.48 1406.60 251.86 1434.55 244.38 M 1460.14 300.24 C 1439.80 302.62 1421.42 315.50 1411.14 333.03 C 1402.66 347.27 1400.41 364.71 1403.57 380.85 C 1407.08 398.67 1418.72 414.40 1434.00 424.00 C 1449.02 433.55 1467.93 436.04 1485.16 432.16 C 1501.49 428.44 1515.88 417.90 1525.25 404.13 C 1535.35 389.63 1538.45 370.98 1535.26 353.75 C 1532.19 336.69 1521.71 321.39 1507.60 311.49 C 1494.03 301.70 1476.61 298.06 1460.14 300.24 Z" />
</g>
<g id="#efefefff">
<path fill="#efefef" opacity="1.00" d=" M 35.56 233.05 C 101.01 233.05 166.45 233.04 231.89 233.05 C 201.97 267.50 171.98 301.88 142.03 336.31 C 172.54 371.11 203.03 405.91 233.26 440.95 C 167.36 440.96 101.46 440.95 35.56 440.95 C 35.56 424.64 35.56 408.34 35.56 392.03 C 65.64 392.02 95.71 392.05 125.78 392.02 C 109.68 373.44 93.55 354.89 77.45 336.30 C 93.09 318.19 108.76 300.12 124.38 281.99 C 94.77 281.95 65.17 281.99 35.56 281.97 C 35.56 265.66 35.56 249.36 35.56 233.05 Z" />
<path fill="#efefef" opacity="1.00" d=" M 314.58 233.05 C 331.79 233.04 349.01 233.04 366.22 233.05 C 384.96 286.20 403.70 339.35 422.44 392.49 C 385.14 392.51 347.84 392.49 310.54 392.50 C 304.87 408.64 299.13 424.75 293.52 440.91 C 276.29 441.01 259.05 440.94 241.82 440.94 C 253.19 408.50 264.55 376.07 275.95 343.64 C 301.72 343.63 327.49 343.65 353.26 343.63 C 340.38 306.77 327.46 269.92 314.58 233.05 Z" />
<path fill="#efefef" opacity="1.00" d=" M 431.10 233.05 C 496.55 233.05 561.99 233.04 627.43 233.06 C 578.41 289.54 529.23 345.90 480.25 402.42 C 479.70 415.20 480.22 428.10 480.03 440.93 C 463.72 440.98 447.41 440.94 431.10 440.95 C 431.11 422.03 431.10 403.10 431.11 384.18 C 460.71 350.11 490.34 316.07 519.93 281.99 C 490.32 281.96 460.71 281.99 431.11 281.97 C 431.10 265.66 431.11 249.36 431.10 233.05 Z" />
</g>
</svg>
