<?xml version="1.0" encoding="UTF-8" ?>
<!DOCTYPE svg PUBLIC "-//W3C//DTD SVG 1.1//EN" "http://www.w3.org/Graphics/SVG/1.1/DTD/svg11.dtd">
<svg width="1597pt" height="642pt" viewBox="0 0 1597 642" version="1.1" xmlns="http://www.w3.org/2000/svg">
<g id="#fefdffff">
<path fill="#fefdff" opacity="1.00" d=" M 170.02 0.00 L 470.22 0.00 C 509.69 1.80 548.38 17.09 578.34 42.87 C 606.34 66.72 626.77 99.35 635.77 135.03 C 639.88 151.00 641.60 167.53 641.29 184.01 C 641.29 271.02 641.29 358.03 641.29 445.04 C 641.20 456.05 641.64 467.09 640.56 478.07 C 637.54 512.20 624.36 545.32 603.18 572.25 C 574.45 609.22 530.77 634.19 484.25 639.81 C 477.17 640.59 470.07 641.21 462.99 642.00 L 180.44 642.00 C 165.88 640.86 151.23 639.71 137.03 636.15 C 103.58 628.09 72.67 610.04 49.07 585.02 C 18.90 553.37 1.01 510.37 0.00 466.63 L 0.00 174.42 C 0.66 150.23 6.24 126.18 16.41 104.22 C 29.83 75.10 51.22 49.75 77.61 31.56 C 104.70 12.72 137.10 1.85 170.02 0.00 M 35.47 232.89 C 35.48 249.30 35.46 265.71 35.49 282.12 C 65.05 282.12 94.61 282.06 124.17 282.15 C 108.46 300.12 92.95 318.25 77.30 336.26 C 93.35 354.85 109.40 373.44 125.60 391.89 C 95.57 391.89 65.53 391.91 35.49 391.88 C 35.45 408.29 35.48 424.69 35.47 441.10 C 101.47 441.08 167.47 441.16 233.47 441.06 C 203.30 405.92 172.68 371.16 142.21 336.28 C 172.11 301.86 202.21 267.60 231.94 233.03 C 222.65 232.72 213.34 232.98 204.04 232.90 C 147.85 232.89 91.66 232.90 35.47 232.89 M 314.42 232.95 C 327.36 269.80 340.19 306.69 353.16 343.54 C 327.40 343.58 301.64 343.54 275.87 343.56 C 264.46 376.06 253.05 408.56 241.68 441.08 C 258.98 441.06 276.28 441.14 293.58 441.04 C 299.19 424.85 304.94 408.71 310.64 392.55 C 347.95 392.57 385.27 392.57 422.58 392.55 C 403.77 339.35 385.08 286.11 366.26 232.91 C 348.98 232.94 331.70 232.86 314.42 232.95 M 431.05 232.89 C 431.04 249.30 431.04 265.70 431.05 282.11 C 460.62 282.10 490.20 282.12 519.77 282.10 C 490.10 316.01 460.59 350.07 431.04 384.10 C 431.05 403.10 431.03 422.10 431.05 441.11 C 447.41 441.10 463.77 441.12 480.13 441.10 C 480.34 428.21 479.74 415.20 480.43 402.39 C 529.41 345.85 578.69 289.54 627.61 232.94 C 562.09 232.83 496.57 232.93 431.05 232.89 Z" />
<path fill="#fefdff" opacity="1.00" d=" M 771.67 150.08 C 791.61 150.08 811.56 150.08 831.50 150.09 C 831.49 186.40 831.51 222.71 831.49 259.02 C 864.57 237.92 907.61 234.14 944.20 247.90 C 959.84 253.85 974.03 263.33 986.02 274.97 C 998.36 286.74 1008.75 300.71 1015.53 316.42 C 1026.57 341.97 1028.19 371.16 1021.86 398.14 C 1014.43 429.64 993.03 456.60 966.37 474.33 C 937.87 493.19 901.45 497.83 868.45 490.31 C 836.92 483.06 809.48 462.16 791.68 435.45 C 778.62 415.88 772.22 392.37 771.66 368.98 C 771.68 296.01 771.66 223.05 771.67 150.08 M 885.58 300.84 C 864.91 304.56 846.88 319.09 837.79 337.87 C 831.45 351.00 830.08 366.21 832.78 380.45 C 837.73 406.30 859.57 427.97 885.47 432.69 C 900.74 435.50 917.12 433.52 930.77 425.88 C 947.27 416.69 960.06 400.54 964.07 381.95 C 967.27 367.03 965.88 350.91 959.04 337.16 C 952.37 323.83 941.26 312.76 927.89 306.17 C 914.88 299.77 899.76 298.28 885.58 300.84 Z" />
<path fill="#fefdff" opacity="1.00" d=" M 1154.10 243.14 C 1181.76 237.00 1211.66 239.16 1237.43 251.33 C 1262.33 263.27 1283.34 283.31 1296.49 307.58 C 1307.05 327.25 1311.40 349.85 1310.92 372.04 C 1310.91 412.59 1310.93 453.13 1310.91 493.67 C 1290.97 493.66 1271.03 493.66 1251.09 493.67 C 1251.07 487.28 1251.08 480.89 1251.08 474.50 C 1235.09 484.55 1216.86 491.06 1198.06 492.98 C 1175.68 495.23 1152.55 492.32 1131.99 482.97 C 1116.41 475.99 1102.62 465.43 1090.99 453.00 C 1076.82 438.13 1066.18 419.79 1061.10 399.84 C 1055.23 376.49 1055.57 351.49 1062.57 328.42 C 1068.22 309.92 1078.75 293.09 1092.22 279.26 C 1108.84 261.67 1130.36 248.42 1154.10 243.14 M 1171.56 300.73 C 1149.85 304.42 1130.93 320.02 1122.15 340.07 C 1112.55 362.50 1115.92 390.31 1131.76 409.10 C 1144.67 425.30 1165.35 434.84 1186.08 433.87 C 1205.67 433.70 1224.56 423.85 1236.61 408.54 C 1248.14 394.56 1252.85 375.68 1250.54 357.83 C 1248.63 340.73 1239.22 324.92 1225.86 314.24 C 1210.98 301.82 1190.48 297.29 1171.56 300.73 Z" />
<path fill="#fefdff" opacity="1.00" d=" M 1421.04 248.99 C 1442.10 240.33 1465.50 238.12 1487.99 241.07 C 1507.48 243.62 1526.29 251.11 1542.18 262.70 C 1552.70 270.37 1562.10 279.57 1570.24 289.74 C 1583.07 305.90 1591.62 325.43 1594.68 345.85 C 1595.60 351.29 1595.77 356.82 1596.57 362.28 C 1597.35 368.57 1595.99 374.80 1595.56 381.06 C 1593.57 401.80 1586.10 422.00 1573.92 438.92 C 1556.58 462.83 1531.79 482.14 1502.88 489.54 C 1469.16 498.29 1431.73 493.43 1402.25 474.52 C 1402.26 522.56 1402.24 570.60 1402.26 618.64 C 1382.31 618.69 1362.36 618.65 1342.42 618.66 C 1342.43 535.45 1342.38 452.22 1342.45 369.01 C 1342.03 349.50 1345.83 329.78 1354.36 312.17 C 1361.09 298.14 1370.71 285.64 1381.93 274.92 C 1393.22 263.98 1406.46 254.96 1421.04 248.99 M 1456.56 300.80 C 1437.07 304.22 1419.89 317.26 1410.33 334.44 C 1402.40 348.60 1400.47 365.68 1403.70 381.47 C 1407.47 399.56 1419.58 415.42 1435.35 424.83 C 1449.94 433.58 1467.92 435.84 1484.45 432.32 C 1501.28 428.70 1516.13 417.82 1525.61 403.59 C 1536.39 387.75 1538.94 367.18 1534.14 348.82 C 1529.95 333.01 1519.39 319.20 1505.79 310.26 C 1491.49 300.66 1473.36 297.75 1456.56 300.80 Z" />
</g>
<g id="#212a3aff">
<path fill="#212a3a" opacity="1.00" d=" M 35.47 232.89 C 91.66 232.90 147.85 232.89 204.04 232.90 C 213.34 232.98 222.65 232.72 231.94 233.03 C 202.21 267.60 172.11 301.86 142.21 336.28 C 172.68 371.16 203.30 405.92 233.47 441.06 C 167.47 441.16 101.47 441.08 35.47 441.10 C 35.48 424.69 35.45 408.29 35.49 391.88 C 65.53 391.91 95.57 391.89 125.60 391.89 C 109.40 373.44 93.35 354.85 77.30 336.26 C 92.95 318.25 108.46 300.12 124.17 282.15 C 94.61 282.06 65.05 282.12 35.49 282.12 C 35.46 265.71 35.48 249.30 35.47 232.89 Z" />
<path fill="#212a3a" opacity="1.00" d=" M 314.42 232.95 C 331.70 232.86 348.98 232.94 366.26 232.91 C 385.08 286.11 403.77 339.35 422.58 392.55 C 385.27 392.57 347.95 392.57 310.64 392.55 C 304.94 408.71 299.19 424.85 293.58 441.04 C 276.28 441.14 258.98 441.06 241.68 441.08 C 253.05 408.56 264.46 376.06 275.87 343.56 C 301.64 343.54 327.40 343.58 353.16 343.54 C 340.19 306.69 327.36 269.80 314.42 232.95 Z" />
<path fill="#212a3a" opacity="1.00" d=" M 431.05 232.89 C 496.57 232.93 562.09 232.83 627.61 232.94 C 578.69 289.54 529.41 345.85 480.43 402.39 C 479.74 415.20 480.34 428.21 480.13 441.10 C 463.77 441.12 447.41 441.10 431.05 441.11 C 431.03 422.10 431.05 403.10 431.04 384.10 C 460.59 350.07 490.10 316.01 519.77 282.10 C 490.20 282.12 460.62 282.10 431.05 282.11 C 431.04 265.70 431.04 249.30 431.05 232.89 Z" />
</g>
</svg>
