<?xml version="1.0" encoding="utf-8"?>
<!-- Generator: Adobe Illustrator 18.1.1, SVG Export Plug-In . SVG Version: 6.00 Build 0)  -->
<svg version="1.1" id="Layer_1" xmlns="http://www.w3.org/2000/svg" xmlns:xlink="http://www.w3.org/1999/xlink" x="0px" y="0px"
	 viewBox="0 0 15000 10000" enable-background="new 0 0 15000 10000" xml:space="preserve">
<rect y="6666.7" fill="#DA0000" width="15000" height="3333.3"/>
<rect y="3333.3" fill="#FFFFFF" width="15000" height="3333.3"/>
<rect y="0" fill="#239F40" width="15000" height="3333.3"/>
<g id="Layer_2">
	<path id="tbp1" fill="none" stroke="#FFFFFF" stroke-width="100" d="M0,2881.6h890.4 M34.2,3189.8v-171.2h274v137h274v-137H411
		 M137,3155.6h68.5 M890.4,3155.6H719.2v-137h274 M993.2,2847.4v308.2h274v-308.2 M1130.1,2847.4v308.2"/>
	<path id="tbp2" fill="none" stroke="#FFFFFF" stroke-width="100" d="M0,3326.8h616.4 M684.9,3326.8h616.4"/>
	<path id="tbp2_1_" fill="none" stroke="#FFFFFF" stroke-width="100" d="M0,6666.7h616.4 M684.9,6666.7h616.4"/>
	<path id="tbp1_1_" fill="none" stroke="#FFFFFF" stroke-width="100" d="M0,6837.9h890.4 M34.2,7146.2v-171.2h274v137h274v-137H411
		 M137,7111.9h68.5 M890.4,7111.9H719.2v-137h274 M993.2,6803.7v308.2h274v-308.2 M1130.1,6803.7v308.2"/>
	<path id="tbp1_2_" fill="none" stroke="#FFFFFF" stroke-width="100" d="M1369.9,2881.6h890.4 M1404.1,3189.8v-171.2h274v137h274
		v-137h-171.2 M1506.8,3155.6h68.5 M2260.3,3155.6H2089v-137h274 M2363,2847.4v308.2h274v-308.2 M2500,2847.4v308.2"/>
	<path id="tbp2_2_" fill="none" stroke="#FFFFFF" stroke-width="100" d="M1369.9,3326.8h616.4 M2054.8,3326.8h616.4"/>
	<path id="tbp2_3_" fill="none" stroke="#FFFFFF" stroke-width="100" d="M1369.9,6666.7h616.4 M2054.8,6666.7h616.4"/>
	<path id="tbp1_3_" fill="none" stroke="#FFFFFF" stroke-width="100" d="M1369.9,6837.9h890.4 M1404.1,7146.2v-171.2h274v137h274
		v-137h-171.2 M1506.8,7111.9h68.5 M2260.3,7111.9H2089v-137h274 M2363,6803.7v308.2h274v-308.2 M2500,6803.7v308.2"/>
	<path id="tbp1_4_" fill="none" stroke="#FFFFFF" stroke-width="100" d="M2739.7,2881.6h890.4 M2774,3189.8v-171.2h274v137h274v-137
		h-171.2 M2876.7,3155.6h68.5 M3630.1,3155.6h-171.2v-137h274 M3732.9,2847.4v308.2h274v-308.2 M3869.9,2847.4v308.2"/>
	<path id="tbp2_4_" fill="none" stroke="#FFFFFF" stroke-width="100" d="M2739.7,3326.8h616.4 M3424.7,3326.8h616.4"/>
	<path id="tbp2_5_" fill="none" stroke="#FFFFFF" stroke-width="100" d="M2739.7,6666.7h616.4 M3424.7,6666.7h616.4"/>
	<path id="tbp1_5_" fill="none" stroke="#FFFFFF" stroke-width="100" d="M2739.7,6837.9h890.4 M2774,7146.2v-171.2h274v137h274v-137
		h-171.2 M2876.7,7111.9h68.5 M3630.1,7111.9h-171.2v-137h274 M3732.9,6803.7v308.2h274v-308.2 M3869.9,6803.7v308.2"/>
	<path id="tbp1_6_" fill="none" stroke="#FFFFFF" stroke-width="100" d="M4109.6,2881.6H5000 M4143.8,3189.8v-171.2h274v137h274
		v-137h-171.2 M4246.6,3155.6h68.5 M5000,3155.6h-171.2v-137h274 M5102.7,2847.4v308.2h274v-308.2 M5239.7,2847.4v308.2"/>
	<path id="tbp2_6_" fill="none" stroke="#FFFFFF" stroke-width="100" d="M4109.6,3326.8H4726 M4794.5,3326.8H5411"/>
	<path id="tbp2_7_" fill="none" stroke="#FFFFFF" stroke-width="100" d="M4109.6,6666.7H4726 M4794.5,6666.7H5411"/>
	<path id="tbp1_7_" fill="none" stroke="#FFFFFF" stroke-width="100" d="M4109.6,6837.9H5000 M4143.8,7146.2v-171.2h274v137h274
		v-137h-171.2 M4246.6,7111.9h68.5 M5000,7111.9h-171.2v-137h274 M5102.7,6803.7v308.2h274v-308.2 M5239.7,6803.7v308.2"/>
	<path id="tbp1_8_" fill="none" stroke="#FFFFFF" stroke-width="100" d="M5479.5,2881.6h890.4 M5513.7,3189.8v-171.2h274v137h274
		v-137h-171.2 M5616.4,3155.6h68.5 M6369.9,3155.6h-171.2v-137h274 M6472.6,2847.4v308.2h274v-308.2 M6609.6,2847.4v308.2"/>
	<path id="tbp2_8_" fill="none" stroke="#FFFFFF" stroke-width="100" d="M5479.5,3326.8h616.4 M6164.4,3326.8h616.4"/>
	<path id="tbp2_9_" fill="none" stroke="#FFFFFF" stroke-width="100" d="M5479.5,6666.7h616.4 M6164.4,6666.7h616.4"/>
	<path id="tbp1_9_" fill="none" stroke="#FFFFFF" stroke-width="100" d="M5479.5,6837.9h890.4 M5513.7,7146.2v-171.2h274v137h274
		v-137h-171.2 M5616.4,7111.9h68.5 M6369.9,7111.9h-171.2v-137h274 M6472.6,6803.7v308.2h274v-308.2 M6609.6,6803.7v308.2"/>
	<path id="tbp1_10_" fill="none" stroke="#FFFFFF" stroke-width="100" d="M6849.3,2881.6h890.4 M6883.6,3189.8v-171.2h274v137h274
		v-137h-171.2 M6986.3,3155.6h68.5 M7739.7,3155.6h-171.2v-137h274 M7842.5,2847.4v308.2h274v-308.2 M7979.5,2847.4v308.2"/>
	<path id="tbp2_10_" fill="none" stroke="#FFFFFF" stroke-width="100" d="M6849.3,3326.8h616.4 M7534.2,3326.8h616.4"/>
	<path id="tbp2_11_" fill="none" stroke="#FFFFFF" stroke-width="100" d="M6849.3,6666.7h616.4 M7534.2,6666.7h616.4"/>
	<path id="tbp1_11_" fill="none" stroke="#FFFFFF" stroke-width="100" d="M6849.3,6837.9h890.4 M6883.6,7146.2v-171.2h274v137h274
		v-137h-171.2 M6986.3,7111.9h68.5 M7739.7,7111.9h-171.2v-137h274 M7842.5,6803.7v308.2h274v-308.2 M7979.5,6803.7v308.2"/>
	<path id="tbp1_12_" fill="none" stroke="#FFFFFF" stroke-width="100" d="M8219.2,2881.6h890.4 M8253.4,3189.8v-171.2h274v137h274
		v-137h-171.2 M8356.2,3155.6h68.5 M9109.6,3155.6h-171.2v-137h274 M9212.3,2847.4v308.2h274v-308.2 M9349.3,2847.4v308.2"/>
	<path id="tbp2_12_" fill="none" stroke="#FFFFFF" stroke-width="100" d="M8219.2,3326.8h616.4 M8904.1,3326.8h616.4"/>
	<path id="tbp2_13_" fill="none" stroke="#FFFFFF" stroke-width="100" d="M8219.2,6666.7h616.4 M8904.1,6666.7h616.4"/>
	<path id="tbp1_13_" fill="none" stroke="#FFFFFF" stroke-width="100" d="M8219.2,6837.9h890.4 M8253.4,7146.2v-171.2h274v137h274
		v-137h-171.2 M8356.2,7111.9h68.5 M9109.6,7111.9h-171.2v-137h274 M9212.3,6803.7v308.2h274v-308.2 M9349.3,6803.7v308.2"/>
	<path id="tbp1_14_" fill="none" stroke="#FFFFFF" stroke-width="100" d="M9589,2881.6h890.4 M9623.3,3189.8v-171.2h274v137h274
		v-137H10000 M9726,3155.6h68.5 M10479.5,3155.6h-171.2v-137h274 M10582.2,2847.4v308.2h274v-308.2 M10719.2,2847.4v308.2"/>
	<path id="tbp2_14_" fill="none" stroke="#FFFFFF" stroke-width="100" d="M9589,3326.8h616.4 M10274,3326.8h616.4"/>
	<path id="tbp2_15_" fill="none" stroke="#FFFFFF" stroke-width="100" d="M9589,6666.7h616.4 M10274,6666.7h616.4"/>
	<path id="tbp1_15_" fill="none" stroke="#FFFFFF" stroke-width="100" d="M9589,6837.9h890.4 M9623.3,7146.2v-171.2h274v137h274
		v-137H10000 M9726,7111.9h68.5 M10479.5,7111.9h-171.2v-137h274 M10582.2,6803.7v308.2h274v-308.2 M10719.2,6803.7v308.2"/>
	<path id="tbp1_16_" fill="none" stroke="#FFFFFF" stroke-width="100" d="M10958.9,2881.6h890.4 M10993.2,3189.8v-171.2h274v137h274
		v-137h-171.2 M11095.9,3155.6h68.5 M11849.3,3155.6h-171.2v-137h274 M11952.1,2847.4v308.2h274v-308.2 M12089,2847.4v308.2"/>
	<path id="tbp2_16_" fill="none" stroke="#FFFFFF" stroke-width="100" d="M10958.9,3326.8h616.4 M11643.8,3326.8h616.4"/>
	<path id="tbp2_17_" fill="none" stroke="#FFFFFF" stroke-width="100" d="M10958.9,6666.7h616.4 M11643.8,6666.7h616.4"/>
	<path id="tbp1_17_" fill="none" stroke="#FFFFFF" stroke-width="100" d="M10958.9,6837.9h890.4 M10993.2,7146.2v-171.2h274v137h274
		v-137h-171.2 M11095.9,7111.9h68.5 M11849.3,7111.9h-171.2v-137h274 M11952.1,6803.7v308.2h274v-308.2 M12089,6803.7v308.2"/>
	<path id="tbp1_18_" fill="none" stroke="#FFFFFF" stroke-width="100" d="M12328.8,2881.6h890.4 M12363,3189.8v-171.2h274v137h274
		v-137h-171.2 M12465.8,3155.6h68.5 M13219.2,3155.6h-171.2v-137h274 M13321.9,2847.4v308.2h274v-308.2 M13458.9,2847.4v308.2"/>
	<path id="tbp2_18_" fill="none" stroke="#FFFFFF" stroke-width="100" d="M12328.8,3326.8h616.4 M13013.7,3326.8h616.4"/>
	<path id="tbp2_19_" fill="none" stroke="#FFFFFF" stroke-width="100" d="M12328.8,6666.7h616.4 M13013.7,6666.7h616.4"/>
	<path id="tbp1_19_" fill="none" stroke="#FFFFFF" stroke-width="100" d="M12328.8,6837.9h890.4 M12363,7146.2v-171.2h274v137h274
		v-137h-171.2 M12465.8,7111.9h68.5 M13219.2,7111.9h-171.2v-137h274 M13321.9,6803.7v308.2h274v-308.2 M13458.9,6803.7v308.2"/>
	<path id="tbp1_20_" fill="none" stroke="#FFFFFF" stroke-width="100" d="M13698.6,2881.6h890.4 M13732.9,3189.8v-171.2h274v137h274
		v-137h-171.2 M13835.6,3155.6h68.5 M14589,3155.6h-171.2v-137h274 M14691.8,2847.4v308.2h274v-308.2 M14828.8,2847.4v308.2"/>
	<path id="tbp2_21_" fill="none" stroke="#FFFFFF" stroke-width="100" d="M13698.6,6666.7h616.4 M14383.6,6666.7h616.4"/>
	<path id="tbp2_20_" fill="none" stroke="#FFFFFF" stroke-width="100" d="M13698.6,3326.8h616.4 M14383.6,3326.8h616.4"/>
	<path id="tbp1_21_" fill="none" stroke="#FFFFFF" stroke-width="100" d="M13698.6,6837.9h890.4 M13732.9,7146.2v-171.2h274v137h274
		v-137h-171.2 M13835.6,7111.9h68.5 M14589,7111.9h-171.2v-137h274 M14691.8,6803.7v308.2h274v-308.2 M14828.8,6803.7v308.2"/>
</g>
<g id="Layer_3">
	<g>
		<path fill="#DA0000" d="M6896.6,5920.7c527.3,171.3,1093.7-117.2,1265.1-644.6c125.1-384.9,6.8-807.3-300-1071.3
			c340.4,503.7,208,1188-295.7,1528.4C7368.9,5866.4,7134.1,5932.1,6896.6,5920.7"/>
		<path fill="#DA0000" d="M8180.7,5728.1c402.1-232.4,539.7-746.8,307.3-1148.9c-113.9-197.1-302.9-339.6-523.8-394.9
			c485.9,365.3,583.7,1055.4,218.4,1541.4C8181.9,5726.4,8181.3,5727.3,8180.7,5728.1"/>
		<path fill="#DA0000" d="M7500,6100.8L7445,5000l55-866.6c33.4,46.7,78.1,84.2,129.9,109.1v647l-44.3,1093.4L7500,6100.8z"/>
		<path fill="#DA0000" d="M7478,4064.3l22,20.7c50.5,71.8,149.6,89,221.3,38.5c60.2-42.3,83.4-120.4,56.2-188.8
			c-15.4,81.5-93.9,135.1-175.4,119.7c-42.9-8.1-80.2-34.5-102.1-72.3"/>
		<path fill="#DA0000" d="M8103.4,5920.7c-527.3,171.3-1093.7-117.2-1265.1-644.6c-125.1-384.9-6.8-807.3,300-1071.3
			c-340.4,503.7-208,1188,295.7,1528.4C7631.1,5866.4,7865.9,5932.1,8103.4,5920.7"/>
		<path fill="#DA0000" d="M6819.3,5728.1c-402.1-232.4-539.7-746.8-307.3-1148.9c113.9-197.1,302.9-339.6,523.8-394.9
			c-485.9,365.3-583.7,1055.4-218.4,1541.4C6818.1,5726.4,6818.7,5727.3,6819.3,5728.1"/>
		<path fill="#DA0000" d="M7500,6100.8l55-1100.8l-55-866.6c-33.4,46.7-78.1,84.2-129.9,109.1v647l44.3,1093.4L7500,6100.8z"/>
		<path fill="#DA0000" d="M7522,4064.3l-22,20.7c-50.5,71.8-149.6,89-221.3,38.5c-60.2-42.3-83.4-120.4-56.2-188.8
			c15.4,81.5,93.9,135.1,175.4,119.7c42.9-8.1,80.2-34.5,102.1-72.3"/>
	</g>
</g>
</svg>
